<svg width="43" height="43" viewBox="0 0 43 43" fill="none" xmlns="http://www.w3.org/2000/svg">
<path d="M38.7275 0C38.1722 0 4.28706 0 3.73177 0C1.67407 0 0 1.67407 0 3.73177C0 4.28706 0 38.1722 0 38.7275C0 40.7852 1.67407 42.4592 3.73177 42.4592C4.28706 42.4592 38.1722 42.4592 38.7275 42.4592C40.7852 42.4592 42.4592 40.7852 42.4592 38.7275C42.4592 38.1722 42.4592 4.28706 42.4592 3.73177C42.4592 1.67407 40.7852 0 38.7275 0ZM2.48785 3.73177C2.48785 3.04587 3.04587 2.48785 3.73177 2.48785H19.9857V8.49185C19.9857 9.5622 21.255 10.1335 22.056 9.42164C22.5206 9.00866 23.0952 8.79039 23.7175 8.79039C25.0893 8.79039 26.2053 9.90644 26.2053 11.2782C26.2053 12.65 25.0893 13.7661 23.7175 13.7661C23.0952 13.7661 22.5206 13.5478 22.056 13.1348C21.256 12.4238 19.9857 12.9929 19.9857 14.0646V19.9857H16.0967C16.2004 19.5826 16.2539 19.165 16.2539 18.7418C16.2539 15.9982 14.0218 13.7661 11.2782 13.7661C8.53464 13.7661 6.30254 15.9982 6.30254 18.7418C6.30254 19.165 6.35603 19.5826 6.45969 19.9857H2.48785V3.73177ZM19.9857 39.9714H3.73177C3.04587 39.9714 2.48785 39.4134 2.48785 38.7275V22.4735H8.49185C9.56229 22.4735 10.1335 21.2042 9.42164 20.4032C9.00866 19.9387 8.79039 19.3641 8.79039 18.7418C8.79039 17.37 9.90644 16.2539 11.2782 16.2539C12.65 16.2539 13.7661 17.37 13.7661 18.7418C13.7661 19.3641 13.5478 19.9386 13.1348 20.4032C12.4237 21.2033 12.9929 22.4735 14.0646 22.4735H19.9857V26.3625C19.5826 26.2588 19.165 26.2053 18.7418 26.2053C15.9982 26.2053 13.7661 28.4374 13.7661 31.181C13.7661 33.9246 15.9982 36.1567 18.7418 36.1567C19.165 36.1567 19.5826 36.1032 19.9857 35.9996V39.9714ZM39.9714 38.7275C39.9714 39.4134 39.4134 39.9714 38.7275 39.9714H22.4735V33.9674C22.4735 32.897 21.2042 32.3258 20.4032 33.0376C19.9387 33.4506 19.3641 33.6689 18.7418 33.6689C17.37 33.6689 16.2539 32.5528 16.2539 31.181C16.2539 29.8092 17.37 28.6932 18.7418 28.6932C19.3641 28.6932 19.9387 28.9114 20.4032 29.3244C21.2032 30.0354 22.4735 29.4663 22.4735 28.3946V22.4653H26.3625C26.2589 22.8684 26.2053 23.2859 26.2053 23.7092C26.2053 26.4528 28.4374 28.6932 31.181 28.6932C33.9246 28.6932 36.1567 26.4611 36.1567 23.7175C36.1567 23.2942 36.1031 22.8767 35.9996 22.4735H39.9714V38.7275ZM39.9714 19.9857H33.9674C32.897 19.9857 32.3257 21.2552 33.0378 22.0561C33.4447 22.5139 33.6689 23.1039 33.6689 23.7175C33.6689 25.0893 32.5528 26.2053 31.181 26.2053C29.8092 26.2053 28.6932 25.0893 28.6932 23.7175C28.6932 23.104 28.9173 22.5139 29.3242 22.0561C30.0355 21.2561 29.4663 19.9857 28.3946 19.9857H22.4735V16.0968C22.8767 16.2004 23.2942 16.2539 23.7175 16.2539C26.4611 16.2539 28.6932 14.0218 28.6932 11.2782C28.6932 8.53464 26.4611 6.30254 23.7175 6.30254C23.2942 6.30254 22.8767 6.35603 22.4735 6.45969V2.48785H38.7275C39.4134 2.48785 39.9714 3.04587 39.9714 3.73177V19.9857Z" fill="white"/>
</svg>
